<svg xmlns="http://www.w3.org/2000/svg" xmlns:xlink="http://www.w3.org/1999/xlink" viewBox="0 0 512 512" united-toolbar-brand="mailcom" united-toolbar-version="4.2.4" united-toolbar-variant="full"><linearGradient id="a" gradientTransform="matrix(1 0 0 -1 0 -13022)" gradientUnits="userSpaceOnUse" x1="0" x2="512" y1="-13278" y2="-13278"><stop offset="0" stop-color="#00f1ff"/><stop offset=".231" stop-color="#00d8ff"/><stop offset=".5138" stop-color="#00c0ff"/><stop offset=".7773" stop-color="#00b2ff"/><stop offset="1" stop-color="#00adff"/></linearGradient><g fill="#828a9f"><path d="m343.574219 160.726562c-23.859375 0-43.273438-19.414062-43.273438-43.277343s19.414063-43.273438 43.273438-43.273438c23.863281 0 43.277343 19.410157 43.277343 43.273438s-19.414062 43.277343-43.277343 43.277343zm0-56.550781c-7.316407 0-13.273438 5.953125-13.273438 13.273438 0 7.320312 5.957031 13.277343 13.273438 13.277343 7.320312 0 13.277343-5.957031 13.277343-13.277343 0-7.320313-5.957031-13.273438-13.277343-13.273438zm0 0"/><path d="m188.058594 437.824219c-8.28125 0-15-6.714844-15-15v-101.789063c0-8.285156 6.71875-15 15-15 7.320312 0 13.277344-5.957031 13.277344-13.277344v-77.050781c0-7.320312-5.957032-13.273437-13.277344-13.273437h-56.550782c-7.320312 0-13.273437 5.953125-13.273437 13.273437v77.050781c0 7.320313 5.957031 13.277344 13.273437 13.277344 8.285157 0 15 6.714844 15 15v101.789063c0 8.285156-6.714843 15-15 15-8.28125 0-15-6.714844-15-15v-89.46875c-16.488281-6.113281-28.273437-22.003907-28.273437-40.597657v-77.050781c0-23.863281 19.414063-43.273437 43.273437-43.273437h56.550782c23.863281 0 43.277344 19.410156 43.277344 43.273437v77.050781c0 18.589844-11.785157 34.480469-28.277344 40.597657v89.46875c0 8.285156-6.714844 15-15 15zm0 0"/><path d="m159.785156 160.726562c-23.863281 0-43.277344-19.414062-43.277344-43.277343s19.414063-43.273438 43.277344-43.273438c23.863282 0 43.273438 19.410157 43.273438 43.273438s-19.410156 43.277343-43.273438 43.277343zm0-56.550781c-7.320312 0-13.277344 5.953125-13.277344 13.273438 0 7.320312 5.957032 13.277343 13.277344 13.277343 7.320313 0 13.273438-5.957031 13.273438-13.277343 0-7.320313-5.953125-13.273438-13.273438-13.273438zm0 0"/><path d="m372.878906 437.824219c-8.28125 0-15-6.714844-15-15v-65.738281c0-8.285157 6.71875-15 15-15h19.679688c-.816406-9.503907-2.617188-22.550782-6.574219-35.867188-4.832031-16.285156-11.722656-29.238281-20.476563-38.507812-3.695312-3.914063-5.011718-9.515626-3.441406-14.667969l10.828125-35.558594c1.082031-3.550781.460938-7.328125-1.695312-10.371094-1.160157-1.632812-3.75-4.378906-8.203125-4.65625h-37.8125c-4.449219.277344-7.042969 3.023438-8.203125 4.65625-2.15625 3.042969-2.773438 6.820313-1.695313 10.371094l10.832032 35.5625c1.570312 5.152344.253906 10.75-3.445313 14.667969-19.640625 20.796875-25.378906 54.957031-27.046875 74.371094h19.675781c8.285157 0 15 6.714843 15 15v65.742187c0 8.28125-6.714843 15-15 15-8.28125 0-15-6.71875-15-15v-50.742187h-20.34375c-8.15625 0-14.820312-6.519532-14.996093-14.675782-.058594-2.722656-.996094-63.703125 30.0625-103.488281l-8.433594-27.699219c-3.808594-12.5-1.648438-25.792968 5.921875-36.464844 7.421875-10.464843 18.96875-16.765624 31.683593-17.289062.203126-.007812.410157-.011719.617188-.011719h38.558594c.203125 0 .410156.003907.617187.011719 12.710938.523438 24.257813 6.824219 31.679688 17.289062 7.574219 10.671876 9.734375 23.964844 5.925781 36.46875l-8.433594 27.691407c9.199219 11.765625 16.441406 26.445312 21.585938 43.761719 9.003906 30.320312 8.5 58.546874 8.476562 59.730468-.175781 8.15625-6.839844 14.675782-14.996094 14.675782h-20.347656v50.742187c0 8.28125-6.714844 14.996094-15 14.996094zm0 0"/></g></svg>