<svg viewBox="0 0 512 512" xmlns="http://www.w3.org/2000/svg" xmlns:xlink="http://www.w3.org/1999/xlink"><linearGradient id="a" gradientTransform="matrix(1 0 0 -1 0 -22278)" gradientUnits="userSpaceOnUse" x1="0" x2="512" y1="-22534" y2="-22534"><stop offset="0" stop-color="#00f1ff"/><stop offset=".231" stop-color="#00d8ff"/><stop offset=".5138" stop-color="#00c0ff"/><stop offset=".7773" stop-color="#00b2ff"/><stop offset="1" stop-color="#00adff"/></linearGradient><path d="m512 256c0 141.386719-114.613281 256-256 256s-256-114.613281-256-256 114.613281-256 256-256 256 114.613281 256 256zm0 0" fill="url(#a)"/><g fill="#fff"><path d="m343.691406 312.269531c-18.277344 0-34.667968 8.183594-45.734375 21.066407l-45.058593-22.410157c-7.417969-3.691406-16.421876-.667969-20.109376 6.75s-.667968 16.421875 6.75 20.109375l45.125 22.441406c-.832031 3.988282-1.273437 8.117188-1.273437 12.347657 0 33.25 27.050781 60.304687 60.304687 60.304687 33.25 0 60.304688-27.054687 60.304688-60.304687-.003906-33.253907-27.054688-60.304688-60.308594-60.304688zm0 90.609375c-16.707031 0-30.304687-13.597656-30.304687-30.304687 0-4.121094.832031-8.050781 2.328125-11.636719.328125-.5.636718-1.019531.90625-1.566406.285156-.570313.515625-1.152344.722656-1.738282 5.21875-9.167968 15.070312-15.363281 26.347656-15.363281 16.710938 0 30.304688 13.59375 30.304688 30.304688 0 16.707031-13.59375 30.304687-30.304688 30.304687zm0 0"/><path d="m190.554688 279.660156-21.351563-10.867187c.910156-4.164063 1.40625-8.480469 1.40625-12.914063 0-4.355468-.476563-8.601562-1.355469-12.699218l128.835938-64.605469c11.066406 12.792969 27.398437 20.914062 45.601562 20.914062 33.253906 0 60.304688-27.050781 60.304688-60.304687s-27.050782-60.304688-60.304688-60.304688c-33.25 0-60.304687 27.050782-60.304687 60.304688 0 4.300781.460937 8.492187 1.320312 12.539062l-128.90625 64.644532c-11.0625-12.726563-27.351562-20.792969-45.496093-20.792969-33.253907 0-60.308594 27.054687-60.308594 60.304687 0 33.253906 27.054687 60.304688 60.308594 60.304688 18.0625 0 34.289062-7.996094 45.351562-20.621094l21.292969 10.835938c2.179687 1.109374 4.5 1.636718 6.789062 1.636718 5.464844 0 10.734375-2.996094 13.382813-8.199218 3.757812-7.386719.816406-16.417969-6.566406-20.175782zm153.136718-170.78125c16.710938 0 30.304688 13.59375 30.304688 30.304688 0 16.710937-13.59375 30.304687-30.304688 30.304687-11.371094 0-21.296875-6.300781-26.480468-15.59375-.179688-.464843-.378907-.929687-.609376-1.386719-.199218-.398437-.421874-.777343-.652343-1.148437-1.640625-3.726563-2.558594-7.84375-2.558594-12.175781-.003906-16.710938 13.59375-30.304688 30.300781-30.304688zm-233.386718 177.304688c-16.710938 0-30.308594-13.59375-30.308594-30.304688 0-16.710937 13.597656-30.304687 30.308594-30.304687 11.703124 0 21.871093 6.671875 26.917968 16.414062.058594.128907.105469.257813.171875.386719.09375.1875.195313.363281.296875.539062 1.867188 3.933594 2.917969 8.328126 2.917969 12.964844 0 16.710938-13.59375 30.304688-30.304687 30.304688zm0 0"/></g></svg>
