<svg viewBox="0 0 512 512" xmlns="http://www.w3.org/2000/svg" xmlns:xlink="http://www.w3.org/1999/xlink"><linearGradient id="a" gradientTransform="matrix(1 0 0 -1 0 -15158)" gradientUnits="userSpaceOnUse" x1="0" x2="512" y1="-15414" y2="-15414"><stop offset="0" stop-color="#00f1ff"/><stop offset=".231" stop-color="#00d8ff"/><stop offset=".5138" stop-color="#00c0ff"/><stop offset=".7773" stop-color="#00b2ff"/><stop offset="1" stop-color="#00adff"/></linearGradient><path d="m512 256c0 141.386719-114.613281 256-256 256s-256-114.613281-256-256 114.613281-256 256-256 256 114.613281 256 256zm0 0" fill="url(#a)"/><path d="m435.554688 158.417969c-.734376-14.6875-7.148438-28.214844-18.066407-38.089844l-40.203125-36.375c-22.546875-20.394531-57.519531-18.6875-77.992187 3.84375l-139.503907 154.386719c-1.609374 1.78125-2.769531 3.925781-3.378906 6.246094l-24.023437 91.453124-38.902344 50.664063c-3.480469 4.527344-4.085937 10.640625-1.558594 15.765625 2.523438 5.125 7.742188 8.367188 13.453125 8.367188h50.757813c4.265625 0 8.328125-1.8125 11.171875-4.988282l16.890625-18.84375 92.179687-34.382812c2.222656-.828125 4.214844-2.171875 5.816406-3.917969l32.601563-35.566406c5.597656-6.105469 5.1875-15.59375-.921875-21.191407-6.105469-5.597656-15.59375-5.1875-21.191406.921876l-21.964844 23.960937-78.046875-70.132813 128.851563-142.597656c9.34375-10.285156 25.328124-11.0625 35.632812-1.738281l40.207031 36.375c4.972657 4.496094 7.894531 10.65625 8.226563 17.335937.335937 6.683594-1.957032 13.097657-6.46875 18.078126l-65.101563 72.042968c-5.550781 6.148438-5.070312 15.632813 1.074219 21.1875 6.148438 5.554688 15.632812 5.074219 21.1875-1.074218l65.089844-72.03125c9.878906-10.914063 14.914062-25.011719 14.183594-39.699219zm-253.417969 201.179687-19.226563-17.832031 16.5-62.8125 64.222656 57.707031zm-32.699219 25.082032h-13.625l12.167969-15.84375 8.550781 7.929687zm0 0" fill="#fff"/></svg>
