<svg xmlns="http://www.w3.org/2000/svg" xmlns:xlink="http://www.w3.org/1999/xlink" viewBox="0 0 512 512" united-toolbar-brand="mailcom" united-toolbar-version="4.2.4" united-toolbar-variant="full"><linearGradient id="a" gradientTransform="matrix(1 0 0 -1 0 -16582)" gradientUnits="userSpaceOnUse" x1="0" x2="512" y1="-16838" y2="-16838"><stop offset="0" stop-color="#00f1ff"/><stop offset=".231" stop-color="#00d8ff"/><stop offset=".5138" stop-color="#00c0ff"/><stop offset=".7773" stop-color="#00b2ff"/><stop offset="1" stop-color="#00adff"/></linearGradient><g fill="#828a9f" style="&#10;    color: #828a9f;&#10;"><path d="m395.949219 125.703125c-5.097657-5.09375-13.097657-5.851563-19.054688-1.789063-23.449219 15.984376-141.070312 96.359376-153.671875 108.960938-18.074218 18.074219-18.074218 47.480469 0 65.558594 9.035156 9.035156 20.90625 13.554687 32.777344 13.554687s23.738281-4.519531 32.777344-13.554687c12.601562-12.605469 92.976562-130.222656 108.957031-153.675782 4.0625-5.953124 3.3125-13.957031-1.785156-19.054687zm-128.382813 151.515625c-6.378906 6.378906-16.753906 6.378906-23.132812 0-6.375-6.375-6.375-16.753906 0-23.128906 4.96875-4.9375 39.996094-29.886719 82.605468-59.472656-29.589843 42.609374-54.539062 77.636718-59.472656 82.601562zm0 0"/><path d="m438.371094 183.441406c-3.40625-7.546875-12.289063-10.90625-19.84375-7.5-7.550782 3.410156-10.90625 12.292969-7.5 19.84375 9.9375 22.007813 14.972656 45.515625 14.972656 69.867188 0 29.25-7.589844 57.820312-22.054688 83.363281l-20.773437-9.894531c-7.484375-3.5625-16.433594-.382813-19.992187 7.09375-3.5625 7.480468-.386719 16.433594 7.09375 19.992187l32.921874 15.679688c2.074219.984375 4.269532 1.457031 6.441407 1.457031 4.875 0 9.613281-2.378906 12.476562-6.664062 22.167969-33.15625 33.886719-71.550782 33.886719-111.027344 0-28.636719-5.929688-56.296875-17.628906-82.210938zm0 0"/><path d="m127.921875 339.183594-19.933594 9.722656c-14.421875-25.515625-21.988281-54.046875-21.988281-83.253906 0-21.503906 4.023438-42.082032 11.339844-61.035156l22.832031 10.949218c2.089844 1.003906 4.300781 1.480469 6.476563 1.480469 5.589843 0 10.953124-3.140625 13.535156-8.515625 3.582031-7.46875.429687-16.429688-7.039063-20.011719l-22.570312-10.828125c27.382812-45.105468 75.152343-76.515625 130.425781-81.371094v24.308594c0 8.285156 6.71875 15 15 15 8.285156 0 15-6.714844 15-15v-24.320312c19.015625 1.648437 37.414062 6.433594 54.867188 14.3125 7.550781 3.40625 16.433593.054687 19.84375-7.5 3.40625-7.550782.050781-16.433594-7.5-19.84375-25.910157-11.691406-53.570313-17.625-82.210938-17.625-110.28125 0-200 89.71875-200 200 0 39.476562 11.71875 77.871094 33.886719 111.027344 2.867187 4.289062 7.601562 6.664062 12.476562 6.664062 2.21875 0 4.460938-.492188 6.570313-1.519531l32.140625-15.679688c7.445312-3.628906 10.535156-12.609375 6.902343-20.054687-3.632812-7.445313-12.609374-10.539063-20.054687-6.90625zm0 0"/></g></svg>