<svg viewBox="0 0 512 512" width="27px" xmlns="http://www.w3.org/2000/svg"
     xmlns:xlink="http://www.w3.org/1999/xlink">
    <linearGradient id="a" gradientTransform="matrix(1 0 0 -1 0 -12310)"
                    gradientUnits="userSpaceOnUse" x1="0" x2="512" y1="-12566" y2="-12566">
        <stop offset="0" stop-color="#00f1ff"></stop>
        <stop offset=".231" stop-color="#00d8ff"></stop>
        <stop offset=".5138" stop-color="#00c0ff"></stop>
        <stop offset=".7773" stop-color="#00b2ff"></stop>
        <stop offset="1" stop-color="#00adff"></stop>
    </linearGradient>
    <g fill="#49516d">
        <path
            d="m130.199219 215.800781c-22.164063 0-40.199219 18.03125-40.199219 40.199219s18.035156 40.199219 40.199219 40.199219c8.285156 0 15-6.714844 15-15 0-8.28125-6.714844-15-15-15-5.625 0-10.199219-4.574219-10.199219-10.199219s4.574219-10.199219 10.199219-10.199219 10.203125 4.574219 10.203125 10.199219c0 8.285156 6.714844 15 15 15s15-6.714844 15-15c0-22.167969-18.035156-40.199219-40.203125-40.199219zm0 0"></path>
        <path
            d="m130.199219 343.097656c-22.164063 0-40.199219 18.035156-40.199219 40.203125 0 22.164063 18.035156 40.199219 40.199219 40.199219 8.285156 0 15-6.714844 15-15s-6.714844-15-15-15c-5.625 0-10.199219-4.574219-10.199219-10.199219s4.574219-10.203125 10.199219-10.203125 10.203125 4.578125 10.203125 10.203125c0 8.28125 6.714844 15 15 15s15-6.71875 15-15c0-22.167969-18.035156-40.203125-40.203125-40.203125zm0 0"></path>
        <path
            d="m130.199219 88.5c-22.164063 0-40.199219 18.035156-40.199219 40.199219 0 22.167969 18.035156 40.203125 40.199219 40.203125 8.285156 0 15-6.714844 15-15s-6.714844-15-15-15c-5.625 0-10.199219-4.578125-10.199219-10.203125s4.574219-10.199219 10.199219-10.199219 10.203125 4.574219 10.203125 10.199219c0 8.285156 6.714844 15 15 15s15-6.714844 15-15c0-22.164063-18.035156-40.199219-40.203125-40.199219zm0 0"></path>
        <path
            d="m410 241h-200.316406c-8.285156 0-15 6.714844-15 15s6.714844 15 15 15h200.316406c8.285156 0 15-6.714844 15-15s-6.714844-15-15-15zm0 0"></path>
        <path
            d="m209.683594 143.699219h200.316406c8.285156 0 15-6.714844 15-15 0-8.28125-6.714844-15-15-15h-200.316406c-8.285156 0-15 6.71875-15 15 0 8.285156 6.714844 15 15 15zm0 0"></path>
        <path
            d="m410 368.300781h-200.316406c-8.285156 0-15 6.714844-15 15 0 8.28125 6.714844 15 15 15h200.316406c8.285156 0 15-6.71875 15-15 0-8.285156-6.714844-15-15-15zm0 0"></path>
    </g>
</svg>
