<svg xmlns="http://www.w3.org/2000/svg" xmlns:xlink="http://www.w3.org/1999/xlink" viewBox="0 0 512 512" united-toolbar-brand="mailcom" united-toolbar-version="4.2.4" united-toolbar-variant="full"><linearGradient id="a" gradientTransform="matrix(1 0 0 -1 0 -16582)" gradientUnits="userSpaceOnUse" x1="0" x2="512" y1="-16838" y2="-16838"><stop offset="0" stop-color="#00f1ff"/><stop offset=".231" stop-color="#00d8ff"/><stop offset=".5138" stop-color="#00c0ff"/><stop offset=".7773" stop-color="#00b2ff"/><stop offset="1" stop-color="#00adff"/></linearGradient><path d="m420.5625 148.253906c-8.019531-8.019531-18.675781-12.433594-30.015625-12.433594h-.007813l-148.667968-.003906c-6.101563-24.417968-28.222656-42.5625-54.503906-42.566406l-52.183594-.015625c-30.980469 0-56.183594 25.203125-56.183594 56.1875v128.386719c0 .019531.003906.039062.003906.054687l-.003906 83.714844c0 30.984375 25.203125 56.1875 56.1875 56.1875h241.625c30.984375 0 56.1875-25.203125 56.1875-56.1875 0-8.28125-6.714844-15-15-15-8.28125 0-15 6.71875-15 15 0 14.441406-11.746094 26.1875-26.1875 26.1875h-241.625c-14.441406 0-26.1875-11.746094-26.1875-26.183594l.003906-120.839843c0-.023438-.003906-.050782-.003906-.078126v-91.242187c0-14.441406 11.746094-26.1875 26.183594-26.1875l52.179687.015625c14.433594.003906 26.179688 11.75 26.179688 26.1875v1.378906c0 8.285156 6.714843 15 15 15l162.003906.003906c3.324219 0 6.453125 1.296876 8.804687 3.648438 2.355469 2.351562 3.648438 5.480469 3.648438 8.808594v12.457031l-243.785156.003906c-8.285156 0-15 6.714844-15 15 0 8.28125 6.714844 15 15 15l243.785156-.003906v72.175781c0 8.285156 6.714844 15 15 15s15-6.714844 15-15v-114.636718c0-11.339844-4.417969-22.003907-12.4375-30.019532zm0 0" fill="#828a9f"/></svg>