<svg xmlns="http://www.w3.org/2000/svg" xmlns:xlink="http://www.w3.org/1999/xlink" viewBox="0 0 512 512" united-toolbar-brand="mailcom" united-toolbar-version="4.2.4" united-toolbar-variant="full"><linearGradient id="a" gradientTransform="matrix(1 0 0 -1 0 -13734)" gradientUnits="userSpaceOnUse" x1="0" x2="512" y1="-13990" y2="-13990"><stop offset="0" stop-color="#00f1ff"/><stop offset=".231" stop-color="#00d8ff"/><stop offset=".5138" stop-color="#00c0ff"/><stop offset=".7773" stop-color="#00b2ff"/><stop offset="1" stop-color="#00adff"/></linearGradient><path d="m115.5 424.5c-8.28125 0-15-6.714844-15-15v-266.230469c0-29.648437 24.121094-53.769531 53.773438-53.769531h246.804687c14.554687 0 27.214844 8.820312 32.257813 22.476562 5.039062 13.652344 1.148437 28.582032-9.910157 38.042969-.035156.03125-.070312.058594-.105469.089844l-63.207031 53.0625 63.773438 56.53125c10.789062 9.5625 14.453125 24.449219 9.339843 37.929687-5.113281 13.476563-17.734374 22.1875-32.148437 22.1875h-220.960937c-8.28125 0-15-6.71875-15-15 0-8.285156 6.71875-15 15-15h220.957031c2.503906 0 3.613281-1.539062 4.101562-2.832031.488281-1.289062.683594-3.175781-1.191406-4.835937l-76.785156-68.066406c-3.265625-2.894532-5.105469-7.066407-5.050781-11.425782.058593-4.363281 2.015624-8.484375 5.355468-11.289062l76.460938-64.183594c1.878906-1.632812 1.707031-3.519531 1.226562-4.820312-.480468-1.308594-1.589844-2.867188-4.113281-2.867188h-246.808594c-13.105469 0-23.769531 10.664062-23.769531 23.773438v266.226562c0 8.285156-6.714844 15-15 15zm0 0" fill="#828a9f"/></svg>