<svg xmlns="http://www.w3.org/2000/svg" xmlns:xlink="http://www.w3.org/1999/xlink" viewBox="0 0 512 512" united-toolbar-brand="mailcom" united-toolbar-version="4.2.4" united-toolbar-variant="full"><linearGradient id="a" gradientTransform="matrix(1 0 0 -1 0 -14446)" gradientUnits="userSpaceOnUse" x1="0" x2="512" y1="-14702" y2="-14702"><stop offset="0" stop-color="#00f1ff"/><stop offset=".231" stop-color="#00d8ff"/><stop offset=".5138" stop-color="#00c0ff"/><stop offset=".7773" stop-color="#00b2ff"/><stop offset="1" stop-color="#00adff"/></linearGradient><g fill="#828a9f"><path d="m418 255.339844c8.285156 0 15-6.71875 15-15v-68.644532c0-30.980468-25.203125-56.1875-56.1875-56.1875h-241.625c-30.980469 0-56.1875 25.203126-56.1875 56.1875v137.285157c0 30.984375 25.203125 56.1875 56.1875 56.1875h105.8125v24.832031h-46.777344c-8.285156 0-15 6.714844-15 15s6.714844 15 15 15h123.558594c8.28125 0 15-6.714844 15-15s-6.71875-15-15-15h-46.78125v-24.832031h105.8125c30.980469 0 56.1875-25.203125 56.1875-56.1875 0-8.285157-6.714844-15-15-15s-15 6.714843-15 15c0 14.441406-11.746094 26.1875-26.1875 26.1875h-241.625c-14.441406 0-26.1875-11.746094-26.1875-26.1875v-137.285157c0-14.441406 11.746094-26.1875 26.1875-26.1875h241.625c14.441406 0 26.1875 11.746094 26.1875 26.1875v68.644532c0 8.28125 6.714844 15 15 15zm0 0"/><path d="m248.164062 182.46875c-8.785156-5.097656-19.28125-5.113281-28.078124-.046875-8.824219 5.085937-14.09375 14.207031-14.09375 24.40625v68.394531c0 10.199219 5.269531 19.320313 14.09375 24.402344 4.386718 2.527344 9.191406 3.789062 14 3.789062 4.835937 0 9.671874-1.277343 14.078124-3.835937l58.933594-34.195313c8.773438-5.09375 14.011719-14.199218 14.011719-24.359374 0-10.160157-5.238281-19.261719-14.011719-24.355469zm-12.171874 89.488281v-61.867187l53.308593 30.933594zm0 0"/></g></svg>