<svg xmlns="http://www.w3.org/2000/svg" xmlns:xlink="http://www.w3.org/1999/xlink" viewBox="0 0 512 512" united-toolbar-brand="mailcom" united-toolbar-version="4.2.4" united-toolbar-variant="full"><linearGradient id="a" gradientTransform="matrix(1 0 0 -1 0 -12310)" gradientUnits="userSpaceOnUse" x1="0" x2="512" y1="-12566" y2="-12566"><stop offset="0" stop-color="#00f1ff"/><stop offset=".231" stop-color="#00d8ff"/><stop offset=".5138" stop-color="#00c0ff"/><stop offset=".7773" stop-color="#00b2ff"/><stop offset="1" stop-color="#00adff"/></linearGradient><g fill="#828a9f"><path d="m256 346.253906c-49.765625 0-90.253906-40.488281-90.253906-90.253906s40.488281-90.253906 90.253906-90.253906 90.253906 40.488281 90.253906 90.253906c0 8.628906-1.21875 17.164062-3.621094 25.375-2.324218 7.953125-10.660156 12.511719-18.605468 10.1875-7.953125-2.328125-12.511719-10.65625-10.1875-18.609375 1.601562-5.472656 2.414062-11.179687 2.414062-16.953125 0-33.226562-27.03125-60.253906-60.253906-60.253906s-60.253906 27.03125-60.253906 60.253906 27.03125 60.253906 60.253906 60.253906c6.21875 0 12.347656-.941406 18.207031-2.792968 7.898438-2.503907 16.328125 1.875 18.828125 9.773437s-1.878906 16.328125-9.773437 18.828125c-8.792969 2.78125-17.964844 4.191406-27.261719 4.191406zm0 0"/><path d="m263.839844 456h-15.679688c-25.5625 0-46.355468-20.796875-46.355468-46.355469v-7.898437c0-2.351563-1.472657-4.476563-3.75-5.417969l-.28125-.117187c-2.296876-.953126-4.847657-.492188-6.511719 1.171874l-5.582031 5.582032c-8.753907 8.753906-20.398438 13.578125-32.777344 13.578125-12.382813 0-24.023438-4.820313-32.78125-13.578125l-11.085938-11.085938c-8.753906-8.753906-13.574218-20.394531-13.574218-32.777344 0-12.382812 4.820312-24.023437 13.574218-32.777343l5.582032-5.582031c1.664062-1.667969 2.125-4.21875 1.175781-6.507813l-.148438-.359375c-.910156-2.207031-3.039062-3.679688-5.390625-3.679688h-7.898437c-25.558594 0-46.355469-20.796874-46.355469-46.355468v-15.679688c0-25.558594 20.796875-46.355468 46.355469-46.355468h7.898437c2.351563 0 4.476563-1.472657 5.421875-3.75l.128907-.320313c.9375-2.253906.476562-4.808594-1.1875-6.472656l-5.582032-5.582031c-8.757812-8.753907-13.578125-20.398438-13.578125-32.777344 0-12.382813 4.820313-24.023438 13.578125-32.78125l11.085938-11.085938c8.753906-8.753906 20.394531-13.578125 32.777344-13.578125 12.382812 0 24.023437 4.824219 32.777343 13.578125l5.585938 5.582032c1.660156 1.664062 4.214843 2.125 6.503906 1.175781l.265625-.109375c2.300781-.949219 3.773438-3.078125 3.773438-5.429688v-7.898437c0-25.558594 20.796874-46.355469 46.355468-46.355469h15.679688c25.5625 0 46.355468 20.796875 46.355468 46.355469v7.898437c0 2.351563 1.472657 4.476563 3.75 5.417969l.28125.117187c2.296876.953126 4.847657.492188 6.511719-1.171874l5.582031-5.582032c8.753907-8.753906 20.398438-13.578125 32.777344-13.578125 12.382813 0 24.023438 4.820313 32.78125 13.578125l11.085938 11.085938c8.753906 8.753906 13.574218 20.394531 13.574218 32.777344 0 12.382812-4.820312 24.023437-13.574218 32.777343l-5.585938 5.585938c-1.660156 1.664062-2.121094 4.214843-1.171875 6.503906l.136719.332031c.921875 2.230469 3.050781 3.707032 5.402344 3.707032h7.898437c25.558594 0 46.351563 20.792968 46.351563 46.355468v15.675782c0 25.5625-20.792969 46.355468-46.351563 46.355468h-7.898437c-2.351563 0-4.480469 1.472656-5.421875 3.753906l-.144531.34375c-.925782 2.230469-.464844 4.78125 1.199218 6.445313l5.585938 5.585937c8.753906 8.753907 13.574218 20.394532 13.574218 32.777344 0 12.382813-4.820312 24.023438-13.578124 32.777344l-11.085938 11.085938c-8.753906 8.757812-20.394531 13.578124-32.777344 13.578124-12.382812 0-24.023437-4.820312-32.777344-13.578124l-5.582031-5.582032c-1.664062-1.664062-4.21875-2.125-6.507812-1.175781l-.261719.113281c-2.304688.949219-3.773438 3.078125-3.773438 5.429688v7.894531c0 25.5625-20.796874 46.359375-46.355468 46.359375zm-68.523438-90.296875c4.6875 0 9.425782.917969 13.957032 2.800781l.25.101563c13.527343 5.585937 22.28125 18.597656 22.28125 33.140625v7.898437c0 9.019531 7.335937 16.355469 16.355468 16.355469h15.679688c9.015625 0 16.355468-7.335938 16.355468-16.355469v-7.898437c0-14.542969 8.753907-27.554688 22.300782-33.148438l.234375-.097656c13.542969-5.625 28.9375-2.613281 39.21875 7.667969l5.582031 5.585937c6.378906 6.375 16.753906 6.375 23.132812 0l11.085938-11.089844c3.089844-3.085937 4.789062-7.195312 4.789062-11.5625 0-4.367187-1.699218-8.476562-4.789062-11.566406l-5.582031-5.582031c-10.28125-10.28125-13.292969-25.679687-7.667969-39.226563l.066406-.15625c5.621094-13.621093 18.636719-22.375 33.179688-22.375h7.898437c9.015625 0 16.351563-7.335937 16.351563-16.355468v-15.679688c0-9.015625-7.335938-16.355468-16.351563-16.355468h-7.898437c-14.542969 0-27.558594-8.753907-33.148438-22.300782l-.082031-.195312c-5.640625-13.578125-2.632813-28.976563 7.652344-39.257813l5.582031-5.582031c3.089844-3.089844 4.789062-7.199219 4.789062-11.566406 0-4.367188-1.699218-8.476563-4.789062-11.566406l-11.085938-11.085938c-6.378906-6.378906-16.753906-6.378906-23.132812 0l-5.582031 5.582031c-10.28125 10.285157-25.679688 13.292969-39.222657 7.667969l-.253906-.105469c-13.523437-5.582031-22.277344-18.59375-22.277344-33.140625v-7.894531c0-9.019531-7.339843-16.355469-16.355468-16.355469h-15.679688c-9.019531 0-16.355468 7.335938-16.355468 16.355469v7.894531c0 14.542969-8.753907 27.558594-22.300782 33.152344l-.238281.097656c-13.542969 5.625-28.9375 2.613282-39.21875-7.671875l-5.582031-5.582031c-6.375-6.378906-16.753906-6.378906-23.128906 0l-11.089844 11.085938c-3.089844 3.089843-4.789063 7.195312-4.789063 11.566406 0 4.367187 1.703125 8.476562 4.789063 11.5625l5.585937 5.585937c10.28125 10.28125 13.289063 25.675781 7.664063 39.222657l-.074219.1875c-5.613281 13.589843-18.625 22.34375-33.167969 22.34375h-7.898437c-9.019531 0-16.355469 7.339843-16.355469 16.355468v15.679688c0 9.019531 7.335938 16.355468 16.355469 16.355468h7.898437c14.542969 0 27.554688 8.753907 33.148438 22.300782l.070312.171875c5.648438 13.605469 2.640625 29.003906-7.644531 39.285156l-5.582031 5.582031c-3.089844 3.089844-4.789063 7.195313-4.789063 11.566406 0 4.367188 1.699219 8.476563 4.789063 11.5625l11.085937 11.089844c6.378907 6.375 16.753907 6.375 23.132813 0l5.582031-5.582031c6.84375-6.847656 15.949219-10.46875 25.269531-10.46875zm0 0"/></g></svg>