<svg viewBox="0 0 512 512" xmlns="http://www.w3.org/2000/svg" xmlns:xlink="http://www.w3.org/1999/xlink"><linearGradient id="a" gradientTransform="matrix(1 0 0 -1 0 -22278)" gradientUnits="userSpaceOnUse" x1="0" x2="512" y1="-22534" y2="-22534"><stop offset="0" stop-color="#00f1ff"/><stop offset=".231" stop-color="#00d8ff"/><stop offset=".5138" stop-color="#00c0ff"/><stop offset=".7773" stop-color="#00b2ff"/><stop offset="1" stop-color="#00adff"/></linearGradient><path d="m512 256c0 141.386719-114.613281 256-256 256s-256-114.613281-256-256 114.613281-256 256-256 256 114.613281 256 256zm0 0" fill="url(#a)"/><path d="m426 276.730469c8.285156 0 15-6.71875 15-15v-83.648438c0-32.101562-26.117188-58.21875-58.21875-58.21875h-253.5625c-32.101562 0-58.21875 26.117188-58.21875 58.21875v155.59375c0 32.101563 26.117188 58.222657 58.21875 58.222657h253.5625c32.101562 0 58.21875-26.121094 58.21875-58.222657 0-8.285156-6.714844-15-15-15s-15 6.714844-15 15c0 15.5625-12.660156 28.222657-28.21875 28.222657h-253.5625c-15.558594 0-28.21875-12.660157-28.21875-28.222657v-107.371093h310v35.425781c0 8.28125 6.714844 15 15 15zm-325-80.425781v-18.222657c0-15.5625 12.660156-28.222656 28.21875-28.222656h253.5625c15.558594 0 28.21875 12.660156 28.21875 28.222656v18.222657zm0 0" fill="#fff"/></svg>
