<svg xmlns="http://www.w3.org/2000/svg" xmlns:xlink="http://www.w3.org/1999/xlink" viewBox="0 0 512 512" united-toolbar-brand="mailcom" united-toolbar-version="4.2.4" united-toolbar-variant="full"><linearGradient id="a" gradientTransform="matrix(1 0 0 -1 0 -9462)" gradientUnits="userSpaceOnUse" x1="0" x2="512" y1="-9718" y2="-9718"><stop offset="0" stop-color="#00f1ff"/><stop offset=".231" stop-color="#00d8ff"/><stop offset=".5138" stop-color="#00c0ff"/><stop offset=".7773" stop-color="#00b2ff"/><stop offset="1" stop-color="#00adff"/></linearGradient><path d="m103.503906 420.5c-3.824218 0-7.589844-1.460938-10.445312-4.230469-4.382813-4.25-5.753906-10.730469-3.464844-16.390625l28.898438-71.492187c-19.65625-25.953125-29.992188-56.296875-29.992188-88.3125 0-85.230469 75.140625-154.574219 167.5-154.574219s167.5 69.34375 167.5 154.574219c0 29.796875-9.203125 58.722656-26.609375 83.652343-4.742187 6.792969-14.097656 8.453126-20.886719 3.710938-6.792968-4.742188-8.453125-14.09375-3.710937-20.886719 13.875-19.867187 21.207031-42.855469 21.207031-66.476562 0-68.6875-61.683594-124.574219-137.5-124.574219s-137.5 55.886719-137.5 124.574219c0 27.792969 9.894531 54.089843 28.613281 76.050781 3.625 4.253906 4.582031 10.171875 2.488281 15.351562l-18.351562 45.398438 54.347656-23.957031c3.796875-1.675781 8.121094-1.699219 11.9375-.070313 18.363282 7.832032 38.03125 11.804688 58.464844 11.804688 23.515625 0 46.714844-5.46875 67.09375-15.820313 7.382812-3.75 16.414062-.804687 20.167969 6.582031 3.75 7.386719.804687 16.414063-6.582031 20.167969-24.566407 12.476563-52.464844 19.070313-80.679688 19.070313-22.246094 0-43.777344-3.941406-64.097656-11.726563l-82.351563 36.300781c-1.945312.855469-4.003906 1.273438-6.046875 1.273438zm0 0" fill="#828a9f"/></svg>