<svg xmlns="http://www.w3.org/2000/svg" xmlns:xlink="http://www.w3.org/1999/xlink" viewBox="0 0 512 512" united-toolbar-brand="mailcom" united-toolbar-version="4.2.4" united-toolbar-variant="full"><linearGradient id="a" gradientTransform="matrix(1 0 0 -1 0 -19430)" gradientUnits="userSpaceOnUse" x1="0" x2="512" y1="-19686" y2="-19686"><stop offset="0" stop-color="#00f1ff"/><stop offset=".231" stop-color="#00d8ff"/><stop offset=".5138" stop-color="#00c0ff"/><stop offset=".7773" stop-color="#00b2ff"/><stop offset="1" stop-color="#00adff"/></linearGradient><path d="m158.722656 437.078125c-8.707031 0-17.414062-2.757813-25.007812-8.277344-15.195313-11.035156-21.261719-29.710937-15.457032-47.570312l24.785157-76.285157c1.6875-5.1875-.144531-10.824218-4.558594-14.027343l-64.890625-47.148438c-15.226562-11.0625-21.285156-29.84375-15.433594-47.851562 5.828125-17.933594 21.703125-29.519531 40.441406-29.519531h80.210938c5.617188 0 10.300781-3.246094 11.933594-8.269532l24.78125-76.753906c5.8125-17.886719 21.695312-29.429688 40.472656-29.429688 18.78125 0 34.664062 11.542969 40.46875 29.402344l24.792969 76.804688c1.625 4.996094 6.308593 8.242187 11.925781 8.242187h80.210938c18.742187 0 34.613281 11.589844 40.441406 29.523438 5.851562 18.007812-.207032 36.789062-15.429688 47.851562l-44.25 32.144531c-6.699218 4.871094-16.082031 3.386719-20.949218-3.316406-4.871094-6.703125-3.386719-16.082031 3.316406-20.949218l44.246094-32.148438c6.894531-5.011719 5.214843-12.21875 4.535156-14.308594-.671875-2.0625-3.511719-8.796875-11.910156-8.796875h-80.210938c-18.570312 0-34.832031-11.652343-40.464844-28.996093l-24.796875-76.808594c-2.605469-8.019532-9.785156-8.644532-11.925781-8.644532s-9.320312.625-11.933594 8.671876l-24.78125 76.753906c-5.640625 17.371094-21.902344 29.023437-40.472656 29.023437h-80.210938c-8.398437 0-11.238281 6.730469-11.910156 8.792969-.679687 2.089844-2.359375 9.300781 4.535156 14.308594l64.890626 47.148437c14.960937 10.867188 21.171874 29.984375 15.457031 47.570313l-24.785157 76.285156c-2.613281 8.046875 2.828126 12.773438 4.558594 14.03125 1.730469 1.253906 7.90625 4.96875 14.75 0l64.894532-47.148438c14.957031-10.871093 35.058593-10.867187 50.015624 0l64.894532 47.144532c6.84375 4.976562 13.023437 1.257812 14.75.003906 1.730468-1.257812 7.171875-5.984375 4.5625-14.03125l-16.972656-52.226562c-2.558594-7.875 1.753906-16.339844 9.632812-18.898438 7.875-2.5625 16.339844 1.75 18.898438 9.632812l16.96875 52.222657c5.804687 17.859375-.261719 36.53125-15.457032 47.570312-15.191406 11.039063-34.824218 11.039063-50.015625 0l-64.894531-47.148437c-4.410156-3.203125-10.339844-3.203125-14.75 0l-64.894531 47.148437c-7.59375 5.519531-16.300781 8.277344-25.007813 8.277344zm0 0" fill="#828a9f"/></svg>