<svg viewBox="0 0 512 512" xmlns="http://www.w3.org/2000/svg" xmlns:xlink="http://www.w3.org/1999/xlink"><linearGradient id="a" gradientTransform="matrix(1 0 0 -1 0 -9462)" gradientUnits="userSpaceOnUse" x1="0" x2="512" y1="-9718" y2="-9718"><stop offset="0" stop-color="#00f1ff"/><stop offset=".231" stop-color="#00d8ff"/><stop offset=".5138" stop-color="#00c0ff"/><stop offset=".7773" stop-color="#00b2ff"/><stop offset="1" stop-color="#00adff"/></linearGradient><path d="m512 256c0 141.386719-114.613281 256-256 256s-256-114.613281-256-256 114.613281-256 256-256 256 114.613281 256 256zm0 0" fill="url(#a)"/><g fill="#fff"><path d="m413.5 311.433594h-68.738281c-8.285157 0-15 6.71875-15 15v60.066406c0 8.28125 6.714843 15 15 15h68.738281c8.285156 0 15-6.71875 15-15v-60.066406c0-8.285156-6.714844-15-15-15zm-15 60.066406h-38.738281v-30.066406h38.738281zm0 0"/><path d="m290.703125 311.433594h-69.40625c-8.285156 0-15 6.71875-15 15v60.066406c0 8.28125 6.714844 15 15 15h69.40625c8.285156 0 15-6.71875 15-15v-60.066406c0-8.285156-6.714844-15-15-15zm-15 60.066406h-39.40625v-30.066406h39.40625zm0 0"/><path d="m167.238281 311.433594h-68.738281c-8.285156 0-15 6.71875-15 15v60.066406c0 8.28125 6.714844 15 15 15h68.738281c8.285157 0 15-6.71875 15-15v-60.066406c0-8.285156-6.714843-15-15-15zm-15 60.066406h-38.738281v-30.066406h38.738281zm0 0"/><path d="m132.535156 287.273438c8.285156 0 15-6.714844 15-15v-13.242188c0-13.808594 11.234375-25.042969 25.042969-25.042969h68.421875v38.390625c0 8.28125 6.714844 15 15 15s15-6.71875 15-15v-38.390625h68.421875c13.808594 0 25.042969 11.234375 25.042969 25.042969v13.242188c0 8.285156 6.714844 15 15 15 8.28125 0 15-6.714844 15-15v-13.242188c0-30.351562-24.691406-55.042969-55.042969-55.042969h-68.421875v-57.425781h19.703125c8.285156 0 15-6.714844 15-15v-60.0625c0-8.285156-6.714844-15-15-15h-69.40625c-8.285156 0-15 6.714844-15 15v60.0625c0 8.285156 6.714844 15 15 15h19.703125v57.425781h-68.421875c-30.351563 0-55.042969 24.691407-55.042969 55.042969v13.242188c0 8.285156 6.71875 15 15 15zm103.761719-200.773438h39.40625v30.0625h-39.40625zm0 0"/></g></svg>
