<svg xmlns="http://www.w3.org/2000/svg" xmlns:xlink="http://www.w3.org/1999/xlink" viewBox="0 0 512 512" united-toolbar-brand="mailcom" united-toolbar-version="4.2.4" united-toolbar-variant="full"><linearGradient id="a" gradientTransform="matrix(1 0 0 -1 0 -17294)" gradientUnits="userSpaceOnUse" x1="0" x2="512" y1="-17550" y2="-17550"><stop offset="0" stop-color="#00f1ff"/><stop offset=".231" stop-color="#00d8ff"/><stop offset=".5138" stop-color="#00c0ff"/><stop offset=".7773" stop-color="#00b2ff"/><stop offset="1" stop-color="#00adff"/></linearGradient><g fill="#828a9f"><path d="m396.40625 120.195312c-8.167969-1.375-15.90625 4.144532-17.273438 12.3125-1.371093 8.171876 4.140626 15.902344 12.308594 17.273438 14.230469 2.390625 24.558594 14.621094 24.558594 29.082031v74.152344c0 8.285156 6.714844 15 15 15s15-6.714844 15-15v-74.152344c0-29.171875-20.855469-53.84375-49.59375-58.667969zm0 0"/><path d="m431 312.171875c-8.285156 0-15 6.714844-15 15 0 16.261719-13.230469 29.488281-29.492188 29.488281h-261.015624c-16.261719 0-29.492188-13.226562-29.492188-29.488281v-148.308594c0-14.460937 10.328125-26.691406 24.558594-29.082031 8.167968-1.371094 13.679687-9.101562 12.3125-17.273438-1.371094-8.171874-9.105469-13.691406-17.277344-12.3125-28.738281 4.824219-49.59375 29.496094-49.59375 58.667969v148.308594c0 32.804687 26.6875 59.488281 59.492188 59.488281h115.507812v29.234375h-51.738281c-8.28125 0-15 6.714844-15 15 0 8.28125 6.71875 15 15 15h133.476562c8.285157 0 15-6.71875 15-15 0-8.285156-6.714843-15-15-15h-51.738281v-29.234375h115.507812c32.804688 0 59.492188-26.6875 59.492188-59.488281 0-8.285156-6.714844-15-15-15zm0 0"/><path d="m270.089844 198.886719c0 8.191406-6.640625 14.832031-14.832032 14.832031-8.191406 0-14.828124-6.640625-14.828124-14.832031 0-8.191407 6.636718-14.828125 14.828124-14.828125 8.191407 0 14.832032 6.636718 14.832032 14.828125zm0 0"/><path d="m182.074219 125.699219c19.074219-19.074219 44.820312-29.628907 72.488281-29.714844h.34375c27.78125 0 53.625 10.546875 72.796875 29.714844 2.929687 2.933593 6.765625 4.394531 10.605469 4.394531s7.679687-1.464844 10.605468-4.394531c5.859376-5.855469 5.859376-15.351563 0-21.210938-24.839843-24.84375-58.207031-38.503906-94.003906-38.503906-.144531 0-.296875 0-.441406 0-35.648438.109375-68.890625 13.785156-93.609375 38.503906-5.855469 5.855469-5.855469 15.355469 0 21.210938 5.859375 5.859375 15.355469 5.859375 21.214844 0zm0 0"/><path d="m298.253906 170.890625c3.839844 0 7.679688-1.464844 10.605469-4.394531 5.859375-5.855469 5.859375-15.355469 0-21.210938-29.554687-29.558594-77.644531-29.558594-107.203125 0-5.859375 5.855469-5.859375 15.351563 0 21.210938s15.355469 5.859375 21.210938 0c17.863281-17.855469 46.921874-17.855469 64.78125 0 2.929687 2.929687 6.765624 4.394531 10.605468 4.394531zm0 0"/></g></svg>