<svg xmlns="http://www.w3.org/2000/svg" xmlns:xlink="http://www.w3.org/1999/xlink" viewBox="0 0 512 512" united-toolbar-brand="mailcom" united-toolbar-version="4.2.4" united-toolbar-variant="full"><linearGradient id="a" gradientTransform="matrix(1 0 0 -1 0 -9462)" gradientUnits="userSpaceOnUse" x1="0" x2="512" y1="-9718" y2="-9718"><stop offset="0" stop-color="#00f1ff"/><stop offset=".231" stop-color="#00d8ff"/><stop offset=".5138" stop-color="#00c0ff"/><stop offset=".7773" stop-color="#00b2ff"/><stop offset="1" stop-color="#00adff"/></linearGradient><g fill="#828a9f"><path d="m241.34375 398.34375h-115.894531c-3.761719 0-7.191407-1.746094-9.410157-4.785156-2.214843-3.042969-2.828124-6.84375-1.675781-10.429688 12.945313-40.25 52.441407-68.359375 96.046875-68.359375 20.28125 0 39.753906 6.105469 56.316406 17.660157 6.792969 4.738281 16.144532 3.074218 20.886719-3.722657 4.738281-6.792969 3.070313-16.144531-3.722656-20.882812-7.722656-5.386719-15.933594-9.847657-24.496094-13.382813 11.488281-11.257812 19.09375-26.449218 20.625-43.375 18.429688-17.742187 42.488281-27.460937 68.261719-27.460937 20.28125 0 39.753906 6.109375 56.316406 17.660156 6.792969 4.738281 16.144532 3.074219 20.882813-3.722656 4.738281-6.792969 3.074219-16.144531-3.722657-20.882813-7.722656-5.386718-15.933593-9.847656-24.496093-13.382812 12.902343-12.640625 20.925781-30.242188 20.925781-49.6875 0-38.386719-31.226562-69.617188-69.613281-69.617188s-69.617188 31.230469-69.617188 69.617188c0 19.328125 7.925781 36.839844 20.691407 49.464844-8.859376 3.613281-17.296876 8.226562-25.1875 13.792968-10.78125-24.53125-35.292969-41.710937-63.757813-41.710937-38.386719 0-69.617187 31.230469-69.617187 69.617187 0 19.296875 7.898437 36.785156 20.628906 49.40625-35.46875 14.101563-64.097656 43.058594-75.910156 79.78125-4.121094 12.816406-1.9375 26.40625 5.988281 37.285156 7.929687 10.878907 20.195312 17.117188 33.65625 17.117188h115.890625c8.285156 0 15-6.714844 15-15 0-8.28125-6.714844-15-14.996094-15zm107.230469-284.371094c21.84375 0 39.613281 17.769532 39.613281 39.613282s-17.769531 39.617187-39.613281 39.617187-39.613281-17.773437-39.613281-39.617187 17.769531-39.613282 39.613281-39.613282zm-137.871094 91.164063c21.84375 0 39.617187 17.769531 39.617187 39.617187 0 21.84375-17.773437 39.613282-39.617187 39.613282s-39.613281-17.769532-39.613281-39.613282c0-21.847656 17.769531-39.617187 39.613281-39.617187zm0 0"/><path d="m421.910156 301.867188c-6.734375-4.820313-16.105468-3.269532-20.925781 3.46875l-65.613281 91.644531c-1.390625 1.574219-3.109375 1.914062-4.035156 1.976562-.96875.066407-2.84375-.058593-4.4375-1.574219l-42.507813-40.816406c-5.976563-5.738281-15.46875-5.546875-21.207031.429688-5.738282 5.976562-5.546875 15.472656.429687 21.210937l42.554688 40.859375c6.6875 6.363282 15.609375 9.90625 24.789062 9.90625.789063 0 1.582031-.027344 2.371094-.082031 10.003906-.664063 19.339844-5.527344 25.617187-13.34375.175782-.214844.34375-.4375.503907-.664063l65.925781-92.085937c4.824219-6.734375 3.273438-16.105469-3.464844-20.929687zm0 0"/></g></svg>