<?xml version="1.0" encoding="iso-8859-1"?>
<!-- Generator: Adobe Illustrator 19.0.0, SVG Export Plug-In . SVG Version: 6.00 Build 0)  -->
<svg xmlns="http://www.w3.org/2000/svg" xmlns:xlink="http://www.w3.org/1999/xlink" version="1.1" id="Layer_1" x="0px" y="0px" viewBox="0 0 512 512" style="enable-background:new 0 0 512 512;" xml:space="preserve">
<path style="fill: #eaeaea;" d="M354.784,494.807l-73.691-35.802c-15.671-7.613-34.001-7.594-49.655,0.052l-73.614,35.958  c-40.657,19.859-87.091-13.607-80.752-58.2l11.477-80.741c2.441-17.17-3.242-34.497-15.395-46.935l-57.146-58.494  c-31.561-32.306-13.896-86.552,30.72-94.339l80.784-14.099c17.179-2.999,31.998-13.726,40.141-29.06l38.296-72.11  c21.151-39.826,78.502-39.886,99.739-0.106l38.451,72.028c8.176,15.317,23.018,26.013,40.203,28.975l80.814,13.929  c44.633,7.692,62.414,61.902,30.921,94.275l-57.02,58.615c-12.125,12.465-17.771,29.803-15.294,46.968l11.649,80.718  C441.846,481.015,395.483,514.58,354.784,494.807z"/>
<path style="fill: #b5b5b5;" d="M496.077,250.136l-57.02,58.615c-12.126,12.465-17.771,29.803-15.294,46.968l11.649,80.718  c0.427,2.965,0.616,5.88,0.593,8.735c-172.025-1.814-313.362-131.562-333.38-298.625l24.885-4.343  c17.179-2.999,31.998-13.726,40.141-29.06l38.296-72.11c21.151-39.826,78.502-39.886,99.739-0.106l38.451,72.028  c8.176,15.317,23.018,26.013,40.203,28.975l80.814,13.929C509.788,163.554,527.569,217.764,496.077,250.136z"/>
<path style="fill: #cccccc;" d="M108.045,92.302c4.346,4.346,4.346,11.394,0,15.742c-2.173,2.173-5.022,3.26-7.87,3.26  s-5.698-1.086-7.87-3.26L42.079,57.818c-4.346-4.346-4.346-11.394,0-15.742c4.346-4.346,11.394-4.346,15.742,0L108.045,92.302z   M7.897,23.637c2.174,2.173,5.022,3.26,7.87,3.26s5.698-1.087,7.87-3.26c4.346-4.346,4.346-11.394,0-15.742l-4.636-4.636  c-4.346-4.345-11.394-4.345-15.741,0c-4.346,4.346-4.346,11.394,0,15.742L7.897,23.637z M496.233,26.897  c2.848,0,5.698-1.087,7.87-3.26l4.636-4.636c4.346-4.346,4.346-11.394,0-15.742c-4.346-4.345-11.394-4.345-15.742,0l-4.636,4.636  c-4.346,4.346-4.346,11.394,0,15.742C490.535,25.809,493.383,26.897,496.233,26.897z M38.349,335.783L4.957,358.044  c-5.114,3.409-6.497,10.32-3.086,15.435c2.145,3.218,5.674,4.957,9.271,4.957c2.121,0,4.266-0.605,6.164-1.871l33.391-22.261  c5.114-3.409,6.497-10.32,3.086-15.435C50.373,333.755,43.462,332.373,38.349,335.783z M507.042,358.044l-33.391-22.261  c-5.114-3.409-12.024-2.028-15.435,3.086c-3.409,5.114-2.028,12.025,3.086,15.435l33.391,22.261  c1.898,1.266,4.041,1.871,6.164,1.871c3.596,0,7.127-1.74,9.271-4.957C513.539,368.364,512.157,361.453,507.042,358.044z   M469.921,42.076c-4.346-4.346-11.394-4.346-15.742,0l-50.226,50.226c-4.346,4.346-4.346,11.394,0,15.742  c2.174,2.174,5.022,3.26,7.87,3.26c2.848,0,5.698-1.086,7.87-3.26l50.226-50.226C474.268,53.472,474.268,46.423,469.921,42.076z   M256,487.513c-6.147,0-11.13,4.983-11.13,11.13v2.226c0,6.147,4.983,11.13,11.13,11.13c6.147,0,11.13-4.983,11.13-11.13v-2.226  C267.13,492.496,262.147,487.513,256,487.513z"/>
<path style="fill: #cccccc;" d="M178.088,244.87c0,24.588-19.932,44.522-44.522,44.522c-24.588,0-44.522-19.934-44.522-44.522  s19.933-44.522,44.522-44.522S178.088,220.281,178.088,244.87z M367.303,200.348c-24.588,0-44.522,19.933-44.522,44.522  s19.932,44.522,44.522,44.522c24.589,0,44.522-19.934,44.522-44.522S391.893,200.348,367.303,200.348z"/>
<path style="fill: #cccccc;" d="M200.348,200.348c0-6.147,4.983-11.13,11.13-11.13h2.226c6.147,0,11.13,4.983,11.13,11.13  c0,6.147-4.983,11.13-11.13,11.13h-2.226C205.331,211.478,200.348,206.495,200.348,200.348z M298.296,211.478h2.226  c6.147,0,11.13-4.983,11.13-11.13c0-6.147-4.983-11.13-11.13-11.13h-2.226c-6.147,0-11.13,4.983-11.13,11.13  C287.165,206.495,292.148,211.478,298.296,211.478z M367.303,260.77h-31.801c-6.147,0-11.13,4.983-11.13,11.13  c0,6.147,4.983,11.13,11.13,11.13h4.013c-5.467,41.223-40.822,73.143-83.515,73.143s-78.048-31.92-83.515-73.143h4.013  c6.147,0,11.13-4.983,11.13-11.13s-4.983-11.13-11.13-11.13h-31.801c-6.147,0-11.13,4.983-11.13,11.13s4.983,11.13,11.13,11.13h5.35  c5.583,53.531,50.968,95.403,105.953,95.403s100.37-41.873,105.953-95.403h5.35c6.147,0,11.13-4.983,11.13-11.13  S373.451,260.77,367.303,260.77z"/>
<g>
</g>
<g>
</g>
<g>
</g>
<g>
</g>
<g>
</g>
<g>
</g>
<g>
</g>
<g>
</g>
<g>
</g>
<g>
</g>
<g>
</g>
<g>
</g>
<g>
</g>
<g>
</g>
<g>
</g>
</svg>
