<?xml version="1.0" encoding="iso-8859-1"?>
<!-- Generator: Adobe Illustrator 19.0.0, SVG Export Plug-In . SVG Version: 6.00 Build 0)  -->
<svg xmlns="http://www.w3.org/2000/svg" xmlns:xlink="http://www.w3.org/1999/xlink" version="1.1" id="Capa_1" x="0px" y="0px" viewBox="0 0 360.8 360.8" style="enable-background:new 0 0 360.8 360.8;" xml:space="preserve" width="512px" height="512px">
<g>
	<g>
		<g>
			<rect x="141.2" y="245.27" width="94" height="42.4" fill="#FFFFFF"/>
			<path d="M15.6,294.47c0,18,14.8,32.8,32.8,32.8H328c18,0,32.8-14.8,32.8-32.8v-120.8H15.6V294.47z M52.4,206.869H130     c3.2,0,5.6,2.4,5.6,5.6s-2.4,5.6-5.6,5.6H52.4c-3.2,0-5.6-2.4-5.6-5.6C46.8,209.67,49.2,206.869,52.4,206.869z M52.4,245.27     c-3.2,0-5.6-2.4-5.6-5.6s2.4-5.6,5.6-5.6H136h104.8h83.6c3.2,0,5.6,2.4,5.6,5.6s-2.4,5.6-5.6,5.6H246v42.4h78.4     c3.2,0,5.6,2.4,5.6,5.6s-2.4,5.6-5.6,5.6h-83.6H136H52.4c-3.2,0-5.6-2.4-5.6-5.6s2.4-5.6,5.6-5.6h78v-42.4H52.4z" fill="#FFFFFF"/>
			<polygon points="154,100.07 198.4,46.07 151.2,50.87 106.8,104.47    " fill="#FFFFFF"/>
			<polygon points="234,92.07 278,38.47 231.2,42.87 186.8,96.869    " fill="#FFFFFF"/>
			<path d="M46,96.47v14.4l28.4-2.8l44.4-54l-77.6,7.6c-10,0.8-18.4,6.8-23.2,15.2h8.8C37.2,76.47,46,85.27,46,96.47z" fill="#FFFFFF"/>
			<path d="M359.2,80.07l-2-19.2c-1.6-16.4-16.4-28.8-32.8-27.2l-13.6,1.2l-44.4,54L359.2,80.07z" fill="#FFFFFF"/>
			<polygon points="204,162.869 154.8,113.67 107.2,113.67 156.8,162.869    " fill="#FFFFFF"/>
			<path d="M46,113.67v15.2c0,10.8-8.8,19.6-19.6,19.6H15.6v14.4H124l-49.6-49.2H46z" fill="#FFFFFF"/>
			<polygon points="284,162.869 234.8,113.67 187.6,113.67 236.8,162.869    " fill="#FFFFFF"/>
			<polygon points="267.6,113.67 317.2,162.869 360.8,162.869 360.8,113.67    " fill="#FFFFFF"/>
			<path d="M34,128.869v-32.4c0-4.4-3.6-7.6-7.6-7.6H7.6c-4.4,0-7.6,3.6-7.6,7.6v32.4c0,4.4,3.6,7.6,7.6,7.6h18.8     C30.8,136.47,34,132.869,34,128.869z" fill="#FFFFFF"/>
		</g>
	</g>
</g>
<g>
</g>
<g>
</g>
<g>
</g>
<g>
</g>
<g>
</g>
<g>
</g>
<g>
</g>
<g>
</g>
<g>
</g>
<g>
</g>
<g>
</g>
<g>
</g>
<g>
</g>
<g>
</g>
<g>
</g>
</svg>
