<?xml version="1.0"?>
<svg xmlns="http://www.w3.org/2000/svg" xmlns:xlink="http://www.w3.org/1999/xlink" version="1.1" id="Capa_1" x="0px" y="0px" width="512px" height="512px" viewBox="0 0 94.365 94.365" style="enable-background:new 0 0 94.365 94.365;" xml:space="preserve" class=""><g><g>
	<path d="M35.756,38.626c-2.678,0-4.951,1.714-5.797,4.104c-0.227-0.644-0.357-1.331-0.357-2.052c0-3.398,2.755-6.154,6.154-6.154   c2.333,0,4.363,1.299,5.407,3.213c0.282-5.036,1.032-9.436,1.797-12.814H1.331c-0.353,0-0.691,0.141-0.941,0.39   C0.14,25.563,0,25.902,0,26.254c0,0.312,0.283,31.486,24.717,49.42c0.234,0.172,0.511,0.258,0.788,0.258   c0.276,0,0.553-0.086,0.787-0.258c7.47-5.482,12.684-12.352,16.323-19.209c-1.157-5.174-1.583-10.193-1.569-14.81   C39.976,39.845,38.012,38.626,35.756,38.626z M10.05,42.73c-0.228-0.644-0.358-1.331-0.358-2.052c0-3.398,2.756-6.154,6.155-6.154   c3.398,0,6.154,2.756,6.154,6.154c0,0.721-0.13,1.408-0.358,2.052c-0.846-2.39-3.118-4.104-5.796-4.104   C13.169,38.626,10.896,40.34,10.05,42.73z M24.85,63.487c-4.972,0-9.002-2.756-9.002-6.154c0-0.721,0.19-1.408,0.523-2.052   c1.238,2.389,4.562,4.103,8.479,4.103s7.243-1.714,8.48-4.103c0.333,0.644,0.523,1.331,0.523,2.052   C33.853,60.731,29.822,63.487,24.85,63.487z M94.26,36.889c-0.14-0.33-0.406-0.588-0.738-0.719L48.51,18.524   c-0.33-0.129-0.696-0.121-1.02,0.02c-0.323,0.142-0.578,0.405-0.707,0.734c-0.114,0.291-11.229,29.418,4.975,55.031   c0.154,0.246,0.381,0.427,0.639,0.526c0.258,0.103,0.545,0.123,0.828,0.048C81.787,67.3,94.143,38.212,94.264,37.919   C94.4,37.589,94.398,37.218,94.26,36.889z M52.04,32.425c0.263-0.671,0.636-1.264,1.082-1.78c-0.084,2.533,1.406,4.959,3.899,5.937   c2.492,0.978,5.234,0.21,6.894-1.705c-0.022,0.683-0.153,1.37-0.416,2.042c-1.241,3.164-4.812,4.723-7.978,3.482   C52.359,39.161,50.799,35.59,52.04,32.425z M50.223,55.476c1.285-3.146,6.06-4.17,10.662-2.289   c4.604,1.881,7.291,5.957,6.006,9.104c-0.272,0.666-0.709,1.23-1.261,1.701c-0.241-2.68-2.67-5.523-6.297-7.008   c-3.626-1.48-7.353-0.652-9.401,1.091C49.866,57.353,49.949,56.144,50.223,55.476z M82.035,44.185   c-1.24,3.164-4.812,4.724-7.977,3.483c-3.164-1.241-4.724-4.812-3.482-7.977c0.263-0.671,0.635-1.264,1.082-1.779   c-0.084,2.532,1.406,4.958,3.898,5.936c2.494,0.978,5.235,0.211,6.896-1.705C82.428,42.826,82.299,43.513,82.035,44.185z" data-original="#000000" class="active-path" data-old_color="#292B2C" fill="#585858"/>
</g></g> </svg>
