
<svg viewBox="-50 0 512 512" xmlns="http://www.w3.org/2000/svg"><path d="m377.429688 139.128906c.570312-2.457031.882812-5.011718.882812-7.640625 0-18.75-15.304688-34.007812-34.109375-34.007812-2.6875 0-5.296875.320312-7.804687.910156-2.765626-8.300781-8.65625-15.191406-16.277344-19.277344.125-1.175781.191406-2.367187.191406-3.578125 0-18.75-15.304688-34.007812-34.109375-34.007812-10.105469 0-19.195313 4.410156-25.445313 11.394531-4.730468-13.128906-17.335937-22.542969-32.109374-22.542969-8.863282 0-16.945313 3.390625-23.019532 8.9375-4.660156-4.257812-10.511718-7.238281-16.992187-8.394531-1.566407-17.308594-16.195313-30.921875-33.960938-30.921875-17.632812 0-32.183593 13.410156-33.933593 30.539062-15.355469 1.46875-27.761719 13.125-30.332032 28.09375-2.617187-.644531-5.351562-.992187-8.167968-.992187-18.804688 0-34.109376 15.257813-34.109376 34.007813 0 3.484374.53125 6.847656 1.515626 10.015624-10.5625 5.789063-17.734376 16.984376-17.734376 29.824219 0 2.628907.308594 5.183594.878907 7.640625-51.117188 13.535156-33.265625 66.253906-8.3125 66.253906h362.21875c28.128906 0 40.917969-58.929687-9.269531-66.253906zm0 0" fill="#efefef"/><path d="m377.429688 139.128906c.570312-2.457031.882812-5.011718.882812-7.640625 0-18.75-15.304688-34.007812-34.109375-34.007812-2.6875 0-5.296875.320312-7.804687.910156-2.765626-8.300781-8.65625-15.191406-16.277344-19.277344.125-1.175781.191406-2.367187.191406-3.578125 0-18.75-15.304688-34.003906-34.113281-34.003906-10.105469 0-19.191407 4.40625-25.441407 11.390625-4.730468-13.125-17.335937-22.542969-32.109374-22.542969-8.863282 0-16.945313 3.390625-23.019532 8.9375-4.660156-4.257812-10.511718-7.238281-16.988281-8.394531-1.570313-17.308594-16.199219-30.921875-33.964844-30.921875-12.710937 0-23.820312 6.972656-29.6875 17.277344 2.332031 4.097656 35.496094 19.785156 44.359375 19.785156 12.023438 0 22.566406 1.808594 28.625 9.558594 2.144532 2.742187 6.019532 3.457031 8.832032 1.410156 5.625-4.085938 12.550781-6.5 20.03125-6.5 18.804687 0 34.109374 15.253906 34.109374 34.003906 0 1.210938-.066406 2.402344-.191406 3.578125 7.621094 4.085938 13.511719 10.976563 16.277344 19.277344 2.507812-.589844 5.117188-.910156 7.804688-.910156 18.804687 0 34.109374 15.257812 34.109374 34.007812 0 2.628907-.3125 5.183594-.878906 7.640625 50.183594 7.320313 37.394532 66.253906 9.261719 66.253906h59.367187c28.132813 0 40.921876-58.929687-9.265624-66.253906zm0 0" fill="#e2e2e2"/><path d="m314.753906 512h-218.058594c-7.65625 0-14.164062-5.585938-15.320312-13.152344l-44.675781-291.601562h338.050781l-44.675781 291.601562c-1.160157 7.566406-7.667969 13.152344-15.320313 13.152344zm0 0" fill="#2196F3"/><path d="m314.265625 207.246094-44.675781 291.601562c-1.160156 7.566406-7.667969 13.152344-15.320313 13.152344h60.484375c7.652344 0 14.160156-5.585938 15.320313-13.152344l44.675781-291.601562zm0 0" fill="#2196F3"/><path d="m223.390625 512h-35.335937l-6.109376-287.976562h47.558594zm0 0" fill="#f3e8d7"/><path d="m152.722656 512h-35.335937l-30.558594-287.976562h47.558594zm0 0" fill="#f3e8d7"/><path d="m294.058594 512h-35.332032l18.335938-287.976562h47.558594zm0 0" fill="#f3e8d7"/><path d="m311.695312 224.023438-42.105468 274.824218c-.921875 6.023438-5.238282 10.78125-10.824219 12.476563l-.039063.675781h35.335938l30.558594-287.976562zm0 0" fill="#e5d8c6"/><path d="m286.816406 359.625c0 44.785156-36.308594 81.089844-81.09375 81.089844s-81.089844-36.304688-81.089844-81.089844 36.304688-81.09375 81.089844-81.09375 81.09375 36.308594 81.09375 81.09375zm0 0" fill="#efa335"/><path d="m256.742188 359.625c0 28.175781-22.84375 51.015625-51.019532 51.015625-28.175781 0-51.015625-22.839844-51.015625-51.015625s22.839844-51.019531 51.015625-51.019531c28.175782 0 51.019532 22.84375 51.019532 51.019531zm0 0" fill="#f3e8d7"/><g fill="#e2e2e2"><path d="m128.664062 95.214844c0 7.714844-6.253906 13.96875-13.96875 13.96875-7.714843 0-13.964843-6.253906-13.964843-13.96875s6.25-13.96875 13.964843-13.96875c7.714844 0 13.96875 6.253906 13.96875 13.96875zm0 0"/><path d="m204.042969 166.753906c0 7.710938-6.253907 13.964844-13.964844 13.964844-7.714844 0-13.96875-6.253906-13.96875-13.964844 0-7.714844 6.253906-13.96875 13.96875-13.96875 7.710937 0 13.964844 6.253906 13.964844 13.96875zm0 0"/><path d="m94.953125 163.621094c0 9.03125-7.324219 16.355468-16.359375 16.355468-9.03125 0-16.355469-7.324218-16.355469-16.355468 0-9.035156 7.324219-16.355469 16.355469-16.355469 9.035156 0 16.359375 7.320313 16.359375 16.355469zm0 0"/><path d="m224.566406 74.386719c0 7.710937-6.253906 13.964843-13.96875 13.964843s-13.96875-6.253906-13.96875-13.964843c0-7.714844 6.253906-13.96875 13.96875-13.96875s13.96875 6.253906 13.96875 13.96875zm0 0"/><path d="m300.78125 128.96875c0 7.714844-6.25 13.96875-13.964844 13.96875s-13.96875-6.253906-13.96875-13.96875c0-7.710938 6.253906-13.964844 13.96875-13.964844s13.964844 6.253906 13.964844 13.964844zm0 0"/></g><path d="m382.144531 230.199219h-352.839843c-2.679688 0-4.851563-2.171875-4.851563-4.851563v-21.320312c0-2.679688 2.171875-4.851563 4.851563-4.851563h352.839843c2.679688 0 4.851563 2.171875 4.851563 4.851563v21.320312c0 2.679688-2.171875 4.851563-4.851563 4.851563zm0 0" fill="#207dc7"/><path d="m386.996094 204.027344c0-2.679688-2.171875-4.851563-4.851563-4.851563h-54.515625v31.023438h54.515625c2.679688 0 4.851563-2.171875 4.851563-4.851563zm0 0" fill="#207dc7"/></svg>