<svg xmlns="http://www.w3.org/2000/svg" width="21.318" height="14.868" viewBox="0 0 21.318 14.868"><defs><style>.a{fill:#fff;}</style></defs><g transform="translate(0)"><path class="a" d="M.914,55.9H20.4a1.04,1.04,0,0,0,0-2.065H.914a1.04,1.04,0,0,0,0,2.065Z" transform="translate(0 -53.833)"/><path class="a" d="M.914,55.9H16.136a1.04,1.04,0,0,0,0-2.065H.914a1.04,1.04,0,0,0,0,2.065Z" transform="translate(0 -41.029)"/><path class="a" d="M.914,183.4h8.6a1.04,1.04,0,0,0,0-2.065H.914a1.04,1.04,0,0,0,0,2.065Z" transform="translate(0 -174.658)"/></g></svg>